%TF.GenerationSoftware,KiCad,Pcbnew,(6.0.10)*%
%TF.CreationDate,2023-05-22T00:42:52-07:00*%
%TF.ProjectId,LFK2,4c464b32-2e6b-4696-9361-645f70636258,rev?*%
%TF.SameCoordinates,Original*%
%TF.FileFunction,Soldermask,Top*%
%TF.FilePolarity,Negative*%
%FSLAX46Y46*%
G04 Gerber Fmt 4.6, Leading zero omitted, Abs format (unit mm)*
G04 Created by KiCad (PCBNEW (6.0.10)) date 2023-05-22 00:42:52*
%MOMM*%
%LPD*%
G01*
G04 APERTURE LIST*
%ADD10C,3.000000*%
%ADD11C,3.987800*%
%ADD12C,1.750000*%
%ADD13C,3.048000*%
%ADD14C,0.650000*%
%ADD15O,1.000000X1.600000*%
%ADD16O,1.000000X2.100000*%
G04 APERTURE END LIST*
D10*
X91122500Y-138430000D03*
D11*
X93662500Y-133350000D03*
D10*
X97472500Y-135890000D03*
D12*
X98742500Y-133350000D03*
X88582500Y-133350000D03*
X260667500Y-57150000D03*
D11*
X255587500Y-57150000D03*
D10*
X251777500Y-54610000D03*
D12*
X250507500Y-57150000D03*
D10*
X258127500Y-52070000D03*
D12*
X232092500Y-76200000D03*
X221932500Y-76200000D03*
D10*
X223202500Y-73660000D03*
D11*
X227012500Y-76200000D03*
D10*
X229552500Y-71120000D03*
X74771250Y-90170000D03*
D12*
X67151250Y-95250000D03*
D11*
X72231250Y-95250000D03*
D10*
X68421250Y-92710000D03*
D12*
X77311250Y-95250000D03*
D10*
X260508750Y-128270000D03*
X254158750Y-130810000D03*
D11*
X257968750Y-133350000D03*
D12*
X263048750Y-133350000D03*
X252888750Y-133350000D03*
X308292500Y-76200000D03*
D10*
X305752500Y-71120000D03*
X299402500Y-73660000D03*
D12*
X298132500Y-76200000D03*
D11*
X303212500Y-76200000D03*
D10*
X117633750Y-128270000D03*
D11*
X115093750Y-133350000D03*
D10*
X111283750Y-130810000D03*
D12*
X110013750Y-133350000D03*
X120173750Y-133350000D03*
D10*
X247015000Y-92710000D03*
X253365000Y-90170000D03*
D11*
X250825000Y-95250000D03*
D12*
X245745000Y-95250000D03*
X255905000Y-95250000D03*
D11*
X165100000Y-114300000D03*
D12*
X160020000Y-114300000D03*
D10*
X167640000Y-109220000D03*
X161290000Y-111760000D03*
D12*
X170180000Y-114300000D03*
X151130000Y-114300000D03*
X140970000Y-114300000D03*
D10*
X148590000Y-109220000D03*
D11*
X146050000Y-114300000D03*
D10*
X142240000Y-111760000D03*
X215265000Y-90170000D03*
D11*
X212725000Y-95250000D03*
D10*
X208915000Y-92710000D03*
D12*
X217805000Y-95250000D03*
X207645000Y-95250000D03*
D11*
X91281250Y-133350000D03*
D12*
X96361250Y-133350000D03*
D10*
X87471250Y-130810000D03*
X93821250Y-128270000D03*
D12*
X86201250Y-133350000D03*
X284480000Y-114300000D03*
D10*
X275590000Y-111760000D03*
X281940000Y-109220000D03*
D11*
X279400000Y-114300000D03*
D12*
X274320000Y-114300000D03*
D10*
X313690000Y-135572500D03*
D12*
X312420000Y-138112500D03*
X322580000Y-138112500D03*
D10*
X320040000Y-133032500D03*
D11*
X317500000Y-138112500D03*
D10*
X108902500Y-73660000D03*
D12*
X117792500Y-76200000D03*
D10*
X115252500Y-71120000D03*
D11*
X112712500Y-76200000D03*
D12*
X107632500Y-76200000D03*
X122555000Y-95250000D03*
X112395000Y-95250000D03*
D11*
X117475000Y-95250000D03*
D10*
X120015000Y-90170000D03*
X113665000Y-92710000D03*
X70008750Y-128270000D03*
D12*
X72548750Y-133350000D03*
D10*
X63658750Y-130810000D03*
D11*
X67468750Y-133350000D03*
D12*
X62388750Y-133350000D03*
X236855000Y-95250000D03*
X226695000Y-95250000D03*
D10*
X234315000Y-90170000D03*
X227965000Y-92710000D03*
D11*
X231775000Y-95250000D03*
D12*
X74930000Y-76200000D03*
D10*
X66040000Y-73660000D03*
D12*
X64770000Y-76200000D03*
D11*
X69850000Y-76200000D03*
D10*
X72390000Y-71120000D03*
X194627500Y-54610000D03*
X200977500Y-52070000D03*
D12*
X193357500Y-57150000D03*
D11*
X198437500Y-57150000D03*
D12*
X203517500Y-57150000D03*
D11*
X274637500Y-57150000D03*
D12*
X279717500Y-57150000D03*
D10*
X270827500Y-54610000D03*
D12*
X269557500Y-57150000D03*
D10*
X277177500Y-52070000D03*
X166052500Y-73660000D03*
D12*
X174942500Y-76200000D03*
D11*
X169862500Y-76200000D03*
D12*
X164782500Y-76200000D03*
D10*
X172402500Y-71120000D03*
X127952500Y-73660000D03*
D12*
X126682500Y-76200000D03*
X136842500Y-76200000D03*
D10*
X134302500Y-71120000D03*
D11*
X131762500Y-76200000D03*
D10*
X224790000Y-109220000D03*
X218440000Y-111760000D03*
D11*
X222250000Y-114300000D03*
D12*
X217170000Y-114300000D03*
X227330000Y-114300000D03*
X98107500Y-57150000D03*
D11*
X103187500Y-57150000D03*
D10*
X99377500Y-54610000D03*
X105727500Y-52070000D03*
D12*
X108267500Y-57150000D03*
X179705000Y-95250000D03*
D10*
X177165000Y-90170000D03*
D11*
X174625000Y-95250000D03*
D10*
X170815000Y-92710000D03*
D12*
X169545000Y-95250000D03*
D11*
X336550000Y-138112500D03*
D12*
X341630000Y-138112500D03*
D10*
X339090000Y-133032500D03*
D12*
X331470000Y-138112500D03*
D10*
X332740000Y-135572500D03*
D12*
X341630000Y-119053915D03*
X331470000Y-119053915D03*
D11*
X336550000Y-119053915D03*
D10*
X332740000Y-116513915D03*
X339090000Y-113973915D03*
D11*
X117475000Y-133350000D03*
D10*
X121285000Y-135890000D03*
D12*
X112395000Y-133350000D03*
D10*
X114935000Y-138430000D03*
D12*
X122555000Y-133350000D03*
D10*
X358140000Y-52070000D03*
D12*
X360680000Y-57150000D03*
D11*
X355600000Y-57150000D03*
D12*
X350520000Y-57150000D03*
D10*
X351790000Y-54610000D03*
X323215000Y-73660000D03*
D11*
X327025000Y-76200000D03*
D12*
X332105000Y-76200000D03*
X321945000Y-76200000D03*
D10*
X329565000Y-71120000D03*
X351790000Y-135572500D03*
X358140000Y-133032500D03*
D12*
X360680000Y-138112500D03*
D11*
X355600000Y-138112500D03*
D12*
X350520000Y-138112500D03*
D10*
X266065000Y-92710000D03*
D12*
X264795000Y-95250000D03*
D10*
X272415000Y-90170000D03*
D11*
X269875000Y-95250000D03*
D12*
X274955000Y-95250000D03*
D10*
X73660000Y-135890000D03*
D12*
X74930000Y-133350000D03*
D11*
X69850000Y-133350000D03*
D12*
X64770000Y-133350000D03*
D10*
X67310000Y-138430000D03*
X280352500Y-73660000D03*
D12*
X289242500Y-76200000D03*
D11*
X284162500Y-76200000D03*
D12*
X279082500Y-76200000D03*
D10*
X286702500Y-71120000D03*
D12*
X251142500Y-76200000D03*
X240982500Y-76200000D03*
D10*
X242252500Y-73660000D03*
X248602500Y-71120000D03*
D11*
X246062500Y-76200000D03*
D10*
X324802500Y-52070000D03*
D11*
X334200500Y-65405000D03*
D13*
X334200500Y-50165000D03*
D10*
X318452500Y-54610000D03*
D12*
X317182500Y-57150000D03*
D13*
X310324500Y-50165000D03*
D11*
X322262500Y-57150000D03*
D12*
X327342500Y-57150000D03*
D11*
X310324500Y-65405000D03*
D10*
X175577500Y-54610000D03*
D12*
X174307500Y-57150000D03*
D10*
X181927500Y-52070000D03*
D12*
X184467500Y-57150000D03*
D11*
X179387500Y-57150000D03*
D10*
X100965000Y-90170000D03*
X94615000Y-92710000D03*
D11*
X98425000Y-95250000D03*
D12*
X93345000Y-95250000D03*
X103505000Y-95250000D03*
X136207500Y-57150000D03*
D11*
X141287500Y-57150000D03*
D12*
X146367500Y-57150000D03*
D10*
X137477500Y-54610000D03*
X143827500Y-52070000D03*
D11*
X107950000Y-114300000D03*
D10*
X110490000Y-109220000D03*
X104140000Y-111760000D03*
D12*
X102870000Y-114300000D03*
X113030000Y-114300000D03*
D10*
X67627500Y-52070000D03*
D11*
X65087500Y-57150000D03*
D12*
X60007500Y-57150000D03*
X70167500Y-57150000D03*
D10*
X61277500Y-54610000D03*
X153352500Y-71120000D03*
X147002500Y-73660000D03*
D12*
X155892500Y-76200000D03*
X145732500Y-76200000D03*
D11*
X150812500Y-76200000D03*
D12*
X212407500Y-57150000D03*
D11*
X217487500Y-57150000D03*
D10*
X220027500Y-52070000D03*
X213677500Y-54610000D03*
D12*
X222567500Y-57150000D03*
D11*
X184150000Y-114300000D03*
D10*
X186690000Y-109220000D03*
D12*
X189230000Y-114300000D03*
X179070000Y-114300000D03*
D10*
X180340000Y-111760000D03*
D12*
X310673750Y-114300000D03*
D11*
X305593750Y-114300000D03*
D10*
X308133750Y-109220000D03*
D12*
X300513750Y-114300000D03*
D10*
X301783750Y-111760000D03*
D12*
X286843497Y-133350000D03*
D10*
X279223497Y-138430000D03*
X285573497Y-135890000D03*
D12*
X276683497Y-133350000D03*
D11*
X281763497Y-133350000D03*
X186531250Y-133350000D03*
D12*
X191611250Y-133350000D03*
D10*
X182721250Y-130810000D03*
X189071250Y-128270000D03*
D11*
X136531350Y-125095000D03*
D12*
X181451250Y-133350000D03*
D13*
X236531150Y-140335000D03*
X136531350Y-140335000D03*
D11*
X236531150Y-125095000D03*
D10*
X232727500Y-54610000D03*
X239077500Y-52070000D03*
D11*
X236537500Y-57150000D03*
D12*
X231457500Y-57150000D03*
X241617500Y-57150000D03*
D10*
X204152500Y-73660000D03*
D12*
X213042500Y-76200000D03*
X202882500Y-76200000D03*
D10*
X210502500Y-71120000D03*
D11*
X207962500Y-76200000D03*
D12*
X98742500Y-76200000D03*
D10*
X96202500Y-71120000D03*
D11*
X93662500Y-76200000D03*
D10*
X89852500Y-73660000D03*
D12*
X88582500Y-76200000D03*
X265430000Y-114300000D03*
D10*
X256540000Y-111760000D03*
D12*
X255270000Y-114300000D03*
D11*
X260350000Y-114300000D03*
D10*
X262890000Y-109220000D03*
D12*
X193357500Y-133350000D03*
D11*
X198437500Y-133350000D03*
D13*
X255587500Y-140335000D03*
D11*
X141287500Y-125095000D03*
X255587500Y-125095000D03*
D12*
X203517500Y-133350000D03*
D10*
X195897500Y-138430000D03*
X202247500Y-135890000D03*
D13*
X141287500Y-140335000D03*
D12*
X298767500Y-57150000D03*
X288607500Y-57150000D03*
D11*
X293687500Y-57150000D03*
D10*
X289877500Y-54610000D03*
X296227500Y-52070000D03*
X123190000Y-111760000D03*
D12*
X121920000Y-114300000D03*
D11*
X127000000Y-114300000D03*
D12*
X132080000Y-114300000D03*
D10*
X129540000Y-109220000D03*
X158115000Y-90170000D03*
D12*
X160655000Y-95250000D03*
D11*
X155575000Y-95250000D03*
D10*
X151765000Y-92710000D03*
D12*
X150495000Y-95250000D03*
X198120000Y-114300000D03*
D11*
X203200000Y-114300000D03*
D10*
X205740000Y-109220000D03*
X199390000Y-111760000D03*
D12*
X208280000Y-114300000D03*
X198755000Y-95250000D03*
D10*
X189865000Y-92710000D03*
D11*
X193675000Y-95250000D03*
D12*
X188595000Y-95250000D03*
D10*
X196215000Y-90170000D03*
D13*
X331819250Y-88265000D03*
D12*
X314801250Y-95250000D03*
D11*
X319881250Y-95250000D03*
X307943250Y-103505000D03*
X331819250Y-103505000D03*
D13*
X307943250Y-88265000D03*
D12*
X324961250Y-95250000D03*
D10*
X316071250Y-92710000D03*
X322421250Y-90170000D03*
D11*
X136525000Y-95250000D03*
D10*
X139065000Y-90170000D03*
X132715000Y-92710000D03*
D12*
X141605000Y-95250000D03*
X131445000Y-95250000D03*
D11*
X288925000Y-95250000D03*
D10*
X291465000Y-90170000D03*
D12*
X294005000Y-95250000D03*
X283845000Y-95250000D03*
D10*
X285115000Y-92710000D03*
D12*
X274320000Y-133350000D03*
X284480000Y-133350000D03*
D10*
X281940000Y-128270000D03*
X275590000Y-130810000D03*
D11*
X279400000Y-133350000D03*
X265112500Y-76200000D03*
D10*
X267652500Y-71120000D03*
X261302500Y-73660000D03*
D12*
X270192500Y-76200000D03*
X260032500Y-76200000D03*
D10*
X185102500Y-73660000D03*
D12*
X183832500Y-76200000D03*
D10*
X191452500Y-71120000D03*
D12*
X193992500Y-76200000D03*
D11*
X188912500Y-76200000D03*
X122237500Y-57150000D03*
D10*
X124777500Y-52070000D03*
X118427500Y-54610000D03*
D12*
X117157500Y-57150000D03*
X127317500Y-57150000D03*
D11*
X160337500Y-57150000D03*
D12*
X165417500Y-57150000D03*
D10*
X162877500Y-52070000D03*
D12*
X155257500Y-57150000D03*
D10*
X156527500Y-54610000D03*
X86677500Y-52070000D03*
X80327500Y-54610000D03*
D12*
X79057500Y-57150000D03*
X89217500Y-57150000D03*
D11*
X84137500Y-57150000D03*
D10*
X351790000Y-73660000D03*
D11*
X355600000Y-76200000D03*
D12*
X350520000Y-76200000D03*
X360680000Y-76200000D03*
D10*
X358140000Y-71120000D03*
D12*
X246380000Y-114300000D03*
X236220000Y-114300000D03*
D10*
X237490000Y-111760000D03*
D11*
X241300000Y-114300000D03*
D10*
X243840000Y-109220000D03*
D12*
X71913750Y-114300000D03*
D13*
X65055750Y-107315000D03*
D11*
X76993750Y-114300000D03*
D10*
X73183750Y-111760000D03*
D13*
X88931750Y-107315000D03*
D10*
X79533750Y-109220000D03*
D11*
X65055750Y-122555000D03*
X88931750Y-122555000D03*
D12*
X82073750Y-114300000D03*
D14*
X210852500Y-47525000D03*
X205072500Y-47525000D03*
D15*
X203642500Y-43875000D03*
D16*
X203642500Y-48055000D03*
X212282500Y-48055000D03*
D15*
X212282500Y-43875000D03*
M02*
