%TF.GenerationSoftware,KiCad,Pcbnew,(6.0.10)*%
%TF.CreationDate,2023-05-22T00:42:52-07:00*%
%TF.ProjectId,LFK2,4c464b32-2e6b-4696-9361-645f70636258,rev?*%
%TF.SameCoordinates,Original*%
%TF.FileFunction,Paste,Bot*%
%TF.FilePolarity,Positive*%
%FSLAX46Y46*%
G04 Gerber Fmt 4.6, Leading zero omitted, Abs format (unit mm)*
G04 Created by KiCad (PCBNEW (6.0.10)) date 2023-05-22 00:42:52*
%MOMM*%
%LPD*%
G01*
G04 APERTURE LIST*
G04 Aperture macros list*
%AMRoundRect*
0 Rectangle with rounded corners*
0 $1 Rounding radius*
0 $2 $3 $4 $5 $6 $7 $8 $9 X,Y pos of 4 corners*
0 Add a 4 corners polygon primitive as box body*
4,1,4,$2,$3,$4,$5,$6,$7,$8,$9,$2,$3,0*
0 Add four circle primitives for the rounded corners*
1,1,$1+$1,$2,$3*
1,1,$1+$1,$4,$5*
1,1,$1+$1,$6,$7*
1,1,$1+$1,$8,$9*
0 Add four rect primitives between the rounded corners*
20,1,$1+$1,$2,$3,$4,$5,0*
20,1,$1+$1,$4,$5,$6,$7,0*
20,1,$1+$1,$6,$7,$8,$9,0*
20,1,$1+$1,$8,$9,$2,$3,0*%
G04 Aperture macros list end*
%ADD10R,2.550000X2.500000*%
%ADD11R,1.200000X0.900000*%
%ADD12RoundRect,0.140000X-0.140000X-0.170000X0.140000X-0.170000X0.140000X0.170000X-0.140000X0.170000X0*%
%ADD13RoundRect,0.140000X0.140000X0.170000X-0.140000X0.170000X-0.140000X-0.170000X0.140000X-0.170000X0*%
%ADD14R,0.700000X1.000000*%
%ADD15R,0.700000X0.600000*%
%ADD16RoundRect,0.135000X-0.185000X0.135000X-0.185000X-0.135000X0.185000X-0.135000X0.185000X0.135000X0*%
%ADD17RoundRect,0.225000X0.225000X0.250000X-0.225000X0.250000X-0.225000X-0.250000X0.225000X-0.250000X0*%
%ADD18RoundRect,0.135000X0.135000X0.185000X-0.135000X0.185000X-0.135000X-0.185000X0.135000X-0.185000X0*%
%ADD19RoundRect,0.218750X0.218750X0.381250X-0.218750X0.381250X-0.218750X-0.381250X0.218750X-0.381250X0*%
%ADD20R,1.800000X1.100000*%
%ADD21RoundRect,0.250000X-0.625000X0.375000X-0.625000X-0.375000X0.625000X-0.375000X0.625000X0.375000X0*%
%ADD22RoundRect,0.140000X-0.170000X0.140000X-0.170000X-0.140000X0.170000X-0.140000X0.170000X0.140000X0*%
%ADD23R,1.200000X1.400000*%
%ADD24RoundRect,0.135000X-0.135000X-0.185000X0.135000X-0.185000X0.135000X0.185000X-0.135000X0.185000X0*%
%ADD25R,0.600000X1.450000*%
%ADD26R,0.300000X1.450000*%
%ADD27RoundRect,0.250000X-0.275000X0.275000X-0.275000X-0.275000X0.275000X-0.275000X0.275000X0.275000X0*%
%ADD28RoundRect,0.062500X-0.062500X0.475000X-0.062500X-0.475000X0.062500X-0.475000X0.062500X0.475000X0*%
%ADD29RoundRect,0.062500X-0.475000X0.062500X-0.475000X-0.062500X0.475000X-0.062500X0.475000X0.062500X0*%
%ADD30R,0.900000X1.200000*%
G04 APERTURE END LIST*
D10*
X100747500Y-135890000D03*
X87820500Y-138430000D03*
X248502500Y-54610000D03*
X261429500Y-52070000D03*
X219927500Y-73660000D03*
X232854500Y-71120000D03*
X65146250Y-92710000D03*
X78073250Y-90170000D03*
X250883750Y-130810000D03*
X263810750Y-128270000D03*
X296127500Y-73660000D03*
X309054500Y-71120000D03*
X108008750Y-130810000D03*
X120935750Y-128270000D03*
X243740000Y-92710000D03*
X256667000Y-90170000D03*
X158015000Y-111760000D03*
X170942000Y-109220000D03*
X138965000Y-111760000D03*
X151892000Y-109220000D03*
X205640000Y-92710000D03*
X218567000Y-90170000D03*
X84196250Y-130810000D03*
X97123250Y-128270000D03*
X272315000Y-111760000D03*
X285242000Y-109220000D03*
X310415000Y-135572500D03*
X323342000Y-133032500D03*
X105627500Y-73660000D03*
X118554500Y-71120000D03*
X110390000Y-92710000D03*
X123317000Y-90170000D03*
X60383750Y-130810000D03*
X73310750Y-128270000D03*
X224690000Y-92710000D03*
X237617000Y-90170000D03*
X62765000Y-73660000D03*
X75692000Y-71120000D03*
X191352500Y-54610000D03*
X204279500Y-52070000D03*
X267552500Y-54610000D03*
X280479500Y-52070000D03*
X162777500Y-73660000D03*
X175704500Y-71120000D03*
X124677500Y-73660000D03*
X137604500Y-71120000D03*
X215165000Y-111760000D03*
X228092000Y-109220000D03*
X96102500Y-54610000D03*
X109029500Y-52070000D03*
X167540000Y-92710000D03*
X180467000Y-90170000D03*
X329465000Y-135572500D03*
X342392000Y-133032500D03*
X342392000Y-113973915D03*
X329465000Y-116513915D03*
X124560000Y-135890000D03*
X111633000Y-138430000D03*
X348515000Y-54610000D03*
X361442000Y-52070000D03*
X319940000Y-73660000D03*
X332867000Y-71120000D03*
X348515000Y-135572500D03*
X361442000Y-133032500D03*
X262790000Y-92710000D03*
X275717000Y-90170000D03*
X76935000Y-135890000D03*
X64008000Y-138430000D03*
X277077500Y-73660000D03*
X290004500Y-71120000D03*
X238977500Y-73660000D03*
X251904500Y-71120000D03*
X315177500Y-54610000D03*
X328104500Y-52070000D03*
X172302500Y-54610000D03*
X185229500Y-52070000D03*
X91340000Y-92710000D03*
X104267000Y-90170000D03*
X134202500Y-54610000D03*
X147129500Y-52070000D03*
X100865000Y-111760000D03*
X113792000Y-109220000D03*
X58002500Y-54610000D03*
X70929500Y-52070000D03*
X143727500Y-73660000D03*
X156654500Y-71120000D03*
X210402500Y-54610000D03*
X223329500Y-52070000D03*
X177065000Y-111760000D03*
X189992000Y-109220000D03*
X298508750Y-111760000D03*
X311435750Y-109220000D03*
X275921497Y-138430000D03*
X288848497Y-135890000D03*
X179446250Y-130810000D03*
X192373250Y-128270000D03*
X229452500Y-54610000D03*
X242379500Y-52070000D03*
X200877500Y-73660000D03*
X213804500Y-71120000D03*
X86577500Y-73660000D03*
X99504500Y-71120000D03*
X253265000Y-111760000D03*
X266192000Y-109220000D03*
X205522500Y-135890000D03*
X192595500Y-138430000D03*
X286602500Y-54610000D03*
X299529500Y-52070000D03*
X119915000Y-111760000D03*
X132842000Y-109220000D03*
X148490000Y-92710000D03*
X161417000Y-90170000D03*
X196115000Y-111760000D03*
X209042000Y-109220000D03*
X186590000Y-92710000D03*
X199517000Y-90170000D03*
X312796250Y-92710000D03*
X325723250Y-90170000D03*
X129440000Y-92710000D03*
X142367000Y-90170000D03*
X281840000Y-92710000D03*
X294767000Y-90170000D03*
X272315000Y-130810000D03*
X285242000Y-128270000D03*
X258027500Y-73660000D03*
X270954500Y-71120000D03*
X181827500Y-73660000D03*
X194754500Y-71120000D03*
X115152500Y-54610000D03*
X128079500Y-52070000D03*
X153252500Y-54610000D03*
X166179500Y-52070000D03*
X77052500Y-54610000D03*
X89979500Y-52070000D03*
X348515000Y-73660000D03*
X361442000Y-71120000D03*
X234215000Y-111760000D03*
X247142000Y-109220000D03*
X69908750Y-111760000D03*
X82835750Y-109220000D03*
D11*
X263896220Y-139739590D03*
X263896220Y-136439590D03*
D12*
X213735535Y-122915772D03*
X214695535Y-122915772D03*
D11*
X124475000Y-130350000D03*
X124475000Y-127050000D03*
X137635040Y-82519921D03*
X137635040Y-79219921D03*
X99565183Y-82518709D03*
X99565183Y-79218709D03*
X275762226Y-101565732D03*
X275762226Y-98265732D03*
D13*
X206154733Y-127060984D03*
X205194733Y-127060984D03*
D11*
X261496938Y-63425118D03*
X261496938Y-60125118D03*
X309119393Y-82485757D03*
X309119393Y-79185757D03*
X342435512Y-125384952D03*
X342435512Y-122084952D03*
X190042796Y-120610931D03*
X190042796Y-117310931D03*
X206768750Y-119839433D03*
X206768750Y-116539433D03*
X213829592Y-82625706D03*
X213829592Y-79325706D03*
X294803937Y-101578797D03*
X294803937Y-98278797D03*
X361475912Y-82549546D03*
X361475912Y-79249546D03*
X266240103Y-120648038D03*
X266240103Y-117348038D03*
X90093750Y-63662500D03*
X90093750Y-60362500D03*
X185322604Y-63502895D03*
X185322604Y-60202895D03*
D12*
X226806865Y-131016825D03*
X227766865Y-131016825D03*
D14*
X208962500Y-59575000D03*
D15*
X208962500Y-61275000D03*
X206962500Y-61275000D03*
X206962500Y-59375000D03*
D11*
X237655378Y-101601434D03*
X237655378Y-98301434D03*
X82867591Y-120622553D03*
X82867591Y-117322553D03*
X251982936Y-82646221D03*
X251982936Y-79346221D03*
X109143750Y-63662500D03*
X109143750Y-60362500D03*
X113830769Y-120680899D03*
X113830769Y-117380899D03*
X118565736Y-82501915D03*
X118565736Y-79201915D03*
X218605573Y-101601043D03*
X218605573Y-98301043D03*
X171133465Y-120688120D03*
X171133465Y-117388120D03*
D16*
X211148479Y-113161698D03*
X211148479Y-114181698D03*
D11*
X311500508Y-120660917D03*
X311500508Y-117360917D03*
X71037500Y-63650000D03*
X71037500Y-60350000D03*
X147243750Y-63712500D03*
X147243750Y-60412500D03*
D17*
X205737191Y-128809371D03*
X204187191Y-128809371D03*
D18*
X204898440Y-55358810D03*
X203878440Y-55358810D03*
D19*
X217732332Y-48716659D03*
X215607332Y-48716659D03*
D11*
X75752308Y-82594908D03*
X75752308Y-79294908D03*
X361480191Y-63464210D03*
X361480191Y-60164210D03*
X161482546Y-101606480D03*
X161482546Y-98306480D03*
D18*
X209001745Y-137427197D03*
X207981745Y-137427197D03*
D20*
X239948410Y-134710074D03*
X246148410Y-134710074D03*
X239948410Y-131010074D03*
X246148410Y-131010074D03*
D21*
X204356967Y-60331928D03*
X204356967Y-63131928D03*
D11*
X151937360Y-120609126D03*
X151937360Y-117309126D03*
D22*
X218877419Y-128008811D03*
X218877419Y-128968811D03*
D23*
X221657984Y-133755317D03*
X221657984Y-131555317D03*
X223357984Y-131555317D03*
X223357984Y-133755317D03*
D11*
X100651926Y-130348928D03*
X100651926Y-127048928D03*
X228197588Y-120709086D03*
X228197588Y-117409086D03*
X199527272Y-101539145D03*
X199527272Y-98239145D03*
D24*
X232893793Y-133646922D03*
X233913793Y-133646922D03*
D11*
X82920289Y-101562833D03*
X82920289Y-98262833D03*
D12*
X215147940Y-136435975D03*
X216107940Y-136435975D03*
D11*
X361489544Y-144374562D03*
X361489544Y-141074562D03*
X342460371Y-144320807D03*
X342460371Y-141020807D03*
X132892080Y-120651238D03*
X132892080Y-117351238D03*
X299621537Y-63515858D03*
X299621537Y-60215858D03*
X285294428Y-120653962D03*
X285294428Y-117353962D03*
X332920697Y-82553627D03*
X332920697Y-79253627D03*
X104326708Y-101653683D03*
X104326708Y-98353683D03*
X180509065Y-101614167D03*
X180509065Y-98314167D03*
D16*
X209935378Y-51583853D03*
X209935378Y-52603853D03*
D11*
X290059887Y-82508139D03*
X290059887Y-79208139D03*
X242393750Y-63548508D03*
X242393750Y-60248508D03*
X289976169Y-130272601D03*
X289976169Y-126972601D03*
X328144363Y-63490206D03*
X328144363Y-60190206D03*
X325762185Y-101540773D03*
X325762185Y-98240773D03*
X323397500Y-144417084D03*
X323397500Y-141117084D03*
D25*
X204737500Y-48970000D03*
X205512500Y-48970000D03*
D26*
X206212500Y-48970000D03*
X206712500Y-48970000D03*
X207212500Y-48970000D03*
X207712500Y-48970000D03*
X208212500Y-48970000D03*
X208712500Y-48970000D03*
X209212500Y-48970000D03*
X209712500Y-48970000D03*
D25*
X210412500Y-48970000D03*
X211187500Y-48970000D03*
D27*
X213303361Y-133499742D03*
X210703361Y-133499742D03*
X213303361Y-129599742D03*
X212003361Y-130899742D03*
X210703361Y-129599742D03*
X209403361Y-130899742D03*
X212003361Y-129599742D03*
X212003361Y-132199742D03*
X210703361Y-130899742D03*
X209403361Y-133499742D03*
X209403361Y-132199742D03*
X209403361Y-129599742D03*
X213303361Y-130899742D03*
X210703361Y-132199742D03*
X212003361Y-133499742D03*
X213303361Y-132199742D03*
D28*
X208853361Y-128212242D03*
X209353361Y-128212242D03*
X209853361Y-128212242D03*
X210353361Y-128212242D03*
X210853361Y-128212242D03*
X211353361Y-128212242D03*
X211853361Y-128212242D03*
X212353361Y-128212242D03*
X212853361Y-128212242D03*
X213353361Y-128212242D03*
X213853361Y-128212242D03*
D29*
X214690861Y-129049742D03*
X214690861Y-129549742D03*
X214690861Y-130049742D03*
X214690861Y-130549742D03*
X214690861Y-131049742D03*
X214690861Y-131549742D03*
X214690861Y-132049742D03*
X214690861Y-132549742D03*
X214690861Y-133049742D03*
X214690861Y-133549742D03*
X214690861Y-134049742D03*
D28*
X213853361Y-134887242D03*
X213353361Y-134887242D03*
X212853361Y-134887242D03*
X212353361Y-134887242D03*
X211853361Y-134887242D03*
X211353361Y-134887242D03*
X210853361Y-134887242D03*
X210353361Y-134887242D03*
X209853361Y-134887242D03*
X209353361Y-134887242D03*
X208853361Y-134887242D03*
D29*
X208015861Y-134049742D03*
X208015861Y-133549742D03*
X208015861Y-133049742D03*
X208015861Y-132549742D03*
X208015861Y-132049742D03*
X208015861Y-131549742D03*
X208015861Y-131049742D03*
X208015861Y-130549742D03*
X208015861Y-130049742D03*
X208015861Y-129549742D03*
X208015861Y-129049742D03*
D30*
X184849850Y-138641446D03*
X181549850Y-138641446D03*
D11*
X156689261Y-82543578D03*
X156689261Y-79243578D03*
D12*
X226806865Y-134191825D03*
X227766865Y-134191825D03*
D11*
X190405396Y-63476963D03*
X190405396Y-60176963D03*
X232904074Y-82532383D03*
X232904074Y-79232383D03*
D16*
X212940522Y-113161097D03*
X212940522Y-114181097D03*
D11*
X271035605Y-82475849D03*
X271035605Y-79175849D03*
X142439817Y-101523749D03*
X142439817Y-98223749D03*
X247166863Y-120621909D03*
X247166863Y-117321909D03*
X128237500Y-63562500D03*
X128237500Y-60262500D03*
D12*
X208018595Y-138847966D03*
X208978595Y-138847966D03*
D11*
X76850000Y-130342934D03*
X76850000Y-127042934D03*
X256705378Y-101631290D03*
X256705378Y-98331290D03*
X223437500Y-63562500D03*
X223437500Y-60262500D03*
X175743242Y-82543963D03*
X175743242Y-79243963D03*
X280510254Y-63530872D03*
X280510254Y-60230872D03*
X123353982Y-101594891D03*
X123353982Y-98294891D03*
X194764424Y-82521863D03*
X194764424Y-79221863D03*
X166293750Y-63562500D03*
X166293750Y-60262500D03*
M02*
