M48
; DRILL file {KiCad (6.0.10)} date Mon May 22 00:42:54 2023
; FORMAT={-:-/ absolute / metric / decimal}
; #@! TF.CreationDate,2023-05-22T00:42:54-07:00
; #@! TF.GenerationSoftware,Kicad,Pcbnew,(6.0.10)
; #@! TF.FileFunction,Plated,1,2,PTH
FMAT,2
METRIC
; #@! TA.AperFunction,Plated,PTH,ViaDrill
T1C0.400
; #@! TA.AperFunction,Plated,PTH,ComponentDrill
T2C0.600
; #@! TA.AperFunction,Plated,PTH,ComponentDrill
T3C1.000
%
G90
G05
T1
X60.353Y-124.487
X60.381Y-134.007
X60.384Y-127.121
X60.41Y-137.502
X75.18Y-61.207
X75.18Y-105.207
X79.99Y-71.701
X84.194Y-141.714
X84.196Y-133.85
X84.202Y-127.398
X84.384Y-91.235
X86.624Y-64.178
X86.624Y-66.252
X87.901Y-118.778
X91.367Y-85.433
X91.371Y-82.671
X92.695Y-122.064
X94.806Y-122.054
X96.038Y-104.868
X97.114Y-122.025
X97.18Y-61.207
X100.749Y-139.727
X100.751Y-141.561
X100.888Y-102.202
X100.907Y-104.089
X105.624Y-64.202
X105.624Y-66.292
X107.989Y-136.605
X108.009Y-126.964
X108.009Y-133.175
X110.39Y-83.111
X110.409Y-85.133
X116.508Y-120.956
X119.882Y-101.956
X119.883Y-104.196
X124.668Y-64.087
X124.668Y-66.195
X125.659Y-139.041
X127.114Y-141.603
X128.072Y-136.843
X129.479Y-82.967
X129.491Y-85.329
X138.933Y-102.119
X138.965Y-104.463
X141.18Y-61.207
X141.18Y-105.207
X143.779Y-64.131
X143.805Y-66.063
X148.508Y-85.399
X148.52Y-82.813
X148.932Y-125.841
X148.946Y-121.088
X157.99Y-101.999
X158.019Y-104.42
X158.02Y-121.054
X158.034Y-125.906
X162.806Y-63.995
X162.825Y-66.29
X163.18Y-61.207
X163.18Y-105.207
X167.551Y-82.984
X167.551Y-85.227
X177.065Y-104.526
X177.087Y-101.927
X179.446Y-125.806
X179.497Y-121.084
X181.847Y-64.022
X181.847Y-66.175
X185.18Y-105.207
X185.18Y-127.207
X186.58Y-83.079
X186.58Y-85.206
X186.781Y-138.673
X194.384Y-122.035
X194.821Y-126.509
X196.115Y-119.732
X196.117Y-102.126
X196.13Y-104.252
X197.432Y-84.138
X198.428Y-48.611
X198.57Y-83.344
X198.57Y-84.931
X200.399Y-63.57
X200.885Y-70.124
X201.314Y-122.154
X201.416Y-65.087
X201.423Y-48.441
X202.406Y-83.344
X202.406Y-84.964
X202.645Y-65.848
X202.669Y-64.252
X203.2Y-84.138
X203.334Y-124.514
X204.309Y-54.039
X204.402Y-123.233
X205.281Y-123.86
X205.486Y-44.704
X205.617Y-85.218
X205.656Y-82.962
X205.811Y-133.211
X205.83Y-58.142
X205.833Y-56.866
X205.873Y-65.848
X205.997Y-55.128
X206.171Y-122.114
X206.229Y-139.235
X206.527Y-133.908
X206.647Y-64.117
X206.679Y-51.452
X207.13Y-140.856
X207.131Y-103.188
X207.511Y-104.831
X207.68Y-121.296
X207.863Y-140.117
X207.959Y-54.687
X207.962Y-46.736
X207.968Y-136.36
X208.141Y-103.85
X208.166Y-102.254
X208.637Y-57.633
X208.663Y-119.062
X208.771Y-65.836
X209.24Y-106.56
X209.329Y-64.002
X209.762Y-102.273
X209.851Y-103.943
X210.138Y-50.439
X210.312Y-44.704
X210.528Y-105.376
X210.768Y-123.436
X211.14Y-65.823
X211.164Y-64.227
X211.219Y-125.006
X211.306Y-119.898
X211.388Y-118.087
X211.442Y-50.401
X211.596Y-122.445
X211.747Y-108.384
X212.0Y-102.209
X212.035Y-103.92
X212.207Y-65.087
X212.626Y-119.958
X213.159Y-105.724
X213.295Y-103.941
X213.319Y-102.345
X213.821Y-107.263
X213.821Y-109.677
X213.91Y-48.619
X214.139Y-103.188
X214.527Y-106.411
X214.841Y-118.246
X215.149Y-137.703
X215.186Y-101.984
X215.299Y-105.561
X215.37Y-120.538
X215.831Y-117.298
X216.466Y-119.368
X217.497Y-121.434
X217.509Y-117.146
X218.514Y-105.354
X218.703Y-119.985
X219.448Y-122.638
X219.681Y-131.864
X219.697Y-48.916
X219.71Y-127.0
X219.924Y-63.931
X219.937Y-66.148
X224.723Y-82.934
X224.723Y-85.181
X229.113Y-132.411
X229.142Y-134.519
X229.18Y-61.207
X229.18Y-105.207
X231.887Y-127.56
X234.234Y-102.014
X234.263Y-104.406
X235.943Y-132.402
X236.681Y-121.442
X238.977Y-66.365
X238.998Y-63.84
X239.725Y-124.792
X243.467Y-119.517
X243.774Y-83.017
X243.774Y-85.195
X248.018Y-124.097
X250.839Y-123.631
X250.878Y-120.733
X251.18Y-105.207
X251.576Y-136.83
X251.591Y-135.71
X253.265Y-102.019
X253.265Y-104.275
X258.006Y-66.226
X258.019Y-63.892
X261.938Y-141.287
X262.737Y-82.934
X262.757Y-85.249
X269.27Y-120.744
X269.716Y-128.418
X269.862Y-123.808
X269.921Y-133.611
X270.837Y-138.399
X271.761Y-135.168
X272.365Y-101.917
X272.365Y-104.348
X273.18Y-61.207
X273.18Y-127.207
X277.077Y-66.236
X277.125Y-63.893
X281.85Y-83.151
X281.85Y-85.252
X287.272Y-123.881
X288.697Y-142.086
X290.35Y-140.355
X290.583Y-102.015
X295.18Y-61.207
X295.18Y-105.207
X295.18Y-127.207
X296.127Y-66.598
X296.205Y-63.815
X298.472Y-107.32
X298.477Y-82.994
X305.575Y-121.051
X307.822Y-123.326
X312.84Y-82.701
X312.869Y-85.327
X317.18Y-61.207
X319.914Y-67.102
X319.933Y-69.261
X322.292Y-102.963
X323.432Y-145.786
X324.509Y-105.151
X325.79Y-144.587
X329.469Y-125.602
X329.527Y-128.023
X339.18Y-61.207
X339.18Y-105.207
X342.429Y-145.83
X344.582Y-144.909
X348.485Y-83.177
X348.485Y-85.372
X348.582Y-66.609
X348.582Y-68.977
X361.18Y-105.207
X361.18Y-127.207
T3
X241.875Y-123.666
X241.875Y-126.206
X241.875Y-128.746
X244.415Y-123.666
X244.415Y-126.206
X244.415Y-128.746
T2
X203.642Y-43.575G85X203.642Y-44.175
G05
X203.642Y-47.505G85X203.642Y-48.605
G05
X212.282Y-43.575G85X212.282Y-44.175
G05
X212.282Y-47.505G85X212.282Y-48.605
G05
T0
M30
