M48
; DRILL file {KiCad (6.0.10)} date Mon May 22 00:42:54 2023
; FORMAT={-:-/ absolute / metric / decimal}
; #@! TF.CreationDate,2023-05-22T00:42:54-07:00
; #@! TF.GenerationSoftware,Kicad,Pcbnew,(6.0.10)
; #@! TF.FileFunction,NonPlated,1,2,NPTH
FMAT,2
METRIC
; #@! TA.AperFunction,NonPlated,NPTH,ComponentDrill
T1C0.650
; #@! TA.AperFunction,NonPlated,NPTH,ComponentDrill
T2C1.750
; #@! TA.AperFunction,NonPlated,NPTH,ComponentDrill
T3C3.000
; #@! TA.AperFunction,NonPlated,NPTH,ComponentDrill
T4C3.048
; #@! TA.AperFunction,NonPlated,NPTH,ComponentDrill
T5C3.988
%
G90
G05
T1
X205.072Y-47.525
X210.852Y-47.525
T2
X60.008Y-57.15
X62.389Y-133.35
X64.77Y-76.2
X64.77Y-133.35
X67.151Y-95.25
X70.167Y-57.15
X71.914Y-114.3
X72.549Y-133.35
X74.93Y-76.2
X74.93Y-133.35
X77.311Y-95.25
X79.057Y-57.15
X82.074Y-114.3
X86.201Y-133.35
X88.582Y-76.2
X88.582Y-133.35
X89.218Y-57.15
X93.345Y-95.25
X96.361Y-133.35
X98.108Y-57.15
X98.742Y-76.2
X98.742Y-133.35
X102.87Y-114.3
X103.505Y-95.25
X107.632Y-76.2
X108.267Y-57.15
X110.014Y-133.35
X112.395Y-95.25
X112.395Y-133.35
X113.03Y-114.3
X117.157Y-57.15
X117.792Y-76.2
X120.174Y-133.35
X121.92Y-114.3
X122.555Y-95.25
X122.555Y-133.35
X126.682Y-76.2
X127.317Y-57.15
X131.445Y-95.25
X132.08Y-114.3
X136.207Y-57.15
X136.843Y-76.2
X140.97Y-114.3
X141.605Y-95.25
X145.732Y-76.2
X146.368Y-57.15
X150.495Y-95.25
X151.13Y-114.3
X155.257Y-57.15
X155.892Y-76.2
X160.02Y-114.3
X160.655Y-95.25
X164.782Y-76.2
X165.417Y-57.15
X169.545Y-95.25
X170.18Y-114.3
X174.308Y-57.15
X174.942Y-76.2
X179.07Y-114.3
X179.705Y-95.25
X181.451Y-133.35
X183.832Y-76.2
X184.468Y-57.15
X188.595Y-95.25
X189.23Y-114.3
X191.611Y-133.35
X193.357Y-57.15
X193.357Y-133.35
X193.992Y-76.2
X198.12Y-114.3
X198.755Y-95.25
X202.882Y-76.2
X203.517Y-57.15
X203.517Y-133.35
X207.645Y-95.25
X208.28Y-114.3
X212.407Y-57.15
X213.042Y-76.2
X217.17Y-114.3
X217.805Y-95.25
X221.932Y-76.2
X222.567Y-57.15
X226.695Y-95.25
X227.33Y-114.3
X231.457Y-57.15
X232.093Y-76.2
X236.22Y-114.3
X236.855Y-95.25
X240.982Y-76.2
X241.617Y-57.15
X245.745Y-95.25
X246.38Y-114.3
X250.507Y-57.15
X251.142Y-76.2
X252.889Y-133.35
X255.27Y-114.3
X255.905Y-95.25
X260.032Y-76.2
X260.667Y-57.15
X263.049Y-133.35
X264.795Y-95.25
X265.43Y-114.3
X269.558Y-57.15
X270.192Y-76.2
X274.32Y-114.3
X274.32Y-133.35
X274.955Y-95.25
X276.683Y-133.35
X279.082Y-76.2
X279.717Y-57.15
X283.845Y-95.25
X284.48Y-114.3
X284.48Y-133.35
X286.843Y-133.35
X288.607Y-57.15
X289.243Y-76.2
X294.005Y-95.25
X298.132Y-76.2
X298.767Y-57.15
X300.514Y-114.3
X308.292Y-76.2
X310.674Y-114.3
X312.42Y-138.112
X314.801Y-95.25
X317.183Y-57.15
X321.945Y-76.2
X322.58Y-138.112
X324.961Y-95.25
X327.342Y-57.15
X331.47Y-119.054
X331.47Y-138.112
X332.105Y-76.2
X341.63Y-119.054
X341.63Y-138.112
X350.52Y-57.15
X350.52Y-76.2
X350.52Y-138.112
X360.68Y-57.15
X360.68Y-76.2
X360.68Y-138.112
T3
X61.277Y-54.61
X63.659Y-130.81
X66.04Y-73.66
X67.31Y-138.43
X67.627Y-52.07
X68.421Y-92.71
X70.009Y-128.27
X72.39Y-71.12
X73.184Y-111.76
X73.66Y-135.89
X74.771Y-90.17
X79.534Y-109.22
X80.328Y-54.61
X86.677Y-52.07
X87.471Y-130.81
X89.852Y-73.66
X91.123Y-138.43
X93.821Y-128.27
X94.615Y-92.71
X96.203Y-71.12
X97.472Y-135.89
X99.377Y-54.61
X100.965Y-90.17
X104.14Y-111.76
X105.727Y-52.07
X108.902Y-73.66
X110.49Y-109.22
X111.284Y-130.81
X113.665Y-92.71
X114.935Y-138.43
X115.252Y-71.12
X117.634Y-128.27
X118.427Y-54.61
X120.015Y-90.17
X121.285Y-135.89
X123.19Y-111.76
X124.777Y-52.07
X127.953Y-73.66
X129.54Y-109.22
X132.715Y-92.71
X134.302Y-71.12
X137.477Y-54.61
X139.065Y-90.17
X142.24Y-111.76
X143.827Y-52.07
X147.002Y-73.66
X148.59Y-109.22
X151.765Y-92.71
X153.352Y-71.12
X156.528Y-54.61
X158.115Y-90.17
X161.29Y-111.76
X162.877Y-52.07
X166.052Y-73.66
X167.64Y-109.22
X170.815Y-92.71
X172.403Y-71.12
X175.577Y-54.61
X177.165Y-90.17
X180.34Y-111.76
X181.927Y-52.07
X182.721Y-130.81
X185.102Y-73.66
X186.69Y-109.22
X189.071Y-128.27
X189.865Y-92.71
X191.452Y-71.12
X194.627Y-54.61
X195.897Y-138.43
X196.215Y-90.17
X199.39Y-111.76
X200.977Y-52.07
X202.248Y-135.89
X204.153Y-73.66
X205.74Y-109.22
X208.915Y-92.71
X210.502Y-71.12
X213.677Y-54.61
X215.265Y-90.17
X218.44Y-111.76
X220.028Y-52.07
X223.202Y-73.66
X224.79Y-109.22
X227.965Y-92.71
X229.552Y-71.12
X232.727Y-54.61
X234.315Y-90.17
X237.49Y-111.76
X239.077Y-52.07
X242.252Y-73.66
X243.84Y-109.22
X247.015Y-92.71
X248.602Y-71.12
X251.777Y-54.61
X253.365Y-90.17
X254.159Y-130.81
X256.54Y-111.76
X258.127Y-52.07
X260.509Y-128.27
X261.303Y-73.66
X262.89Y-109.22
X266.065Y-92.71
X267.652Y-71.12
X270.827Y-54.61
X272.415Y-90.17
X275.59Y-111.76
X275.59Y-130.81
X277.178Y-52.07
X279.223Y-138.43
X280.352Y-73.66
X281.94Y-109.22
X281.94Y-128.27
X285.115Y-92.71
X285.573Y-135.89
X286.702Y-71.12
X289.877Y-54.61
X291.465Y-90.17
X296.227Y-52.07
X299.402Y-73.66
X301.784Y-111.76
X305.752Y-71.12
X308.134Y-109.22
X313.69Y-135.572
X316.071Y-92.71
X318.452Y-54.61
X320.04Y-133.032
X322.421Y-90.17
X323.215Y-73.66
X324.803Y-52.07
X329.565Y-71.12
X332.74Y-116.514
X332.74Y-135.572
X339.09Y-113.974
X339.09Y-133.032
X351.79Y-54.61
X351.79Y-73.66
X351.79Y-135.572
X358.14Y-52.07
X358.14Y-71.12
X358.14Y-133.032
T4
X65.056Y-107.315
X88.932Y-107.315
X136.531Y-140.335
X141.287Y-140.335
X236.531Y-140.335
X255.587Y-140.335
X307.943Y-88.265
X310.325Y-50.165
X331.819Y-88.265
X334.2Y-50.165
T5
X65.056Y-122.555
X65.087Y-57.15
X67.469Y-133.35
X69.85Y-76.2
X69.85Y-133.35
X72.231Y-95.25
X76.994Y-114.3
X84.138Y-57.15
X88.932Y-122.555
X91.281Y-133.35
X93.662Y-76.2
X93.662Y-133.35
X98.425Y-95.25
X103.188Y-57.15
X107.95Y-114.3
X112.712Y-76.2
X115.094Y-133.35
X117.475Y-95.25
X117.475Y-133.35
X122.237Y-57.15
X127.0Y-114.3
X131.762Y-76.2
X136.525Y-95.25
X136.531Y-125.095
X141.287Y-57.15
X141.287Y-125.095
X146.05Y-114.3
X150.812Y-76.2
X155.575Y-95.25
X160.338Y-57.15
X165.1Y-114.3
X169.862Y-76.2
X174.625Y-95.25
X179.387Y-57.15
X184.15Y-114.3
X186.531Y-133.35
X188.912Y-76.2
X193.675Y-95.25
X198.438Y-57.15
X198.438Y-133.35
X203.2Y-114.3
X207.962Y-76.2
X212.725Y-95.25
X217.487Y-57.15
X222.25Y-114.3
X227.012Y-76.2
X231.775Y-95.25
X236.531Y-125.095
X236.537Y-57.15
X241.3Y-114.3
X246.062Y-76.2
X250.825Y-95.25
X255.587Y-57.15
X255.587Y-125.095
X257.969Y-133.35
X260.35Y-114.3
X265.113Y-76.2
X269.875Y-95.25
X274.637Y-57.15
X279.4Y-114.3
X279.4Y-133.35
X281.763Y-133.35
X284.162Y-76.2
X288.925Y-95.25
X293.688Y-57.15
X303.212Y-76.2
X305.594Y-114.3
X307.943Y-103.505
X310.325Y-65.405
X317.5Y-138.112
X319.881Y-95.25
X322.262Y-57.15
X327.025Y-76.2
X331.819Y-103.505
X334.2Y-65.405
X336.55Y-119.054
X336.55Y-138.112
X355.6Y-57.15
X355.6Y-76.2
X355.6Y-138.112
T0
M30
