%TF.GenerationSoftware,KiCad,Pcbnew,(6.0.10)*%
%TF.CreationDate,2023-05-22T00:42:52-07:00*%
%TF.ProjectId,LFK2,4c464b32-2e6b-4696-9361-645f70636258,rev?*%
%TF.SameCoordinates,Original*%
%TF.FileFunction,Soldermask,Bot*%
%TF.FilePolarity,Negative*%
%FSLAX46Y46*%
G04 Gerber Fmt 4.6, Leading zero omitted, Abs format (unit mm)*
G04 Created by KiCad (PCBNEW (6.0.10)) date 2023-05-22 00:42:52*
%MOMM*%
%LPD*%
G01*
G04 APERTURE LIST*
G04 Aperture macros list*
%AMRoundRect*
0 Rectangle with rounded corners*
0 $1 Rounding radius*
0 $2 $3 $4 $5 $6 $7 $8 $9 X,Y pos of 4 corners*
0 Add a 4 corners polygon primitive as box body*
4,1,4,$2,$3,$4,$5,$6,$7,$8,$9,$2,$3,0*
0 Add four circle primitives for the rounded corners*
1,1,$1+$1,$2,$3*
1,1,$1+$1,$4,$5*
1,1,$1+$1,$6,$7*
1,1,$1+$1,$8,$9*
0 Add four rect primitives between the rounded corners*
20,1,$1+$1,$2,$3,$4,$5,0*
20,1,$1+$1,$4,$5,$6,$7,0*
20,1,$1+$1,$6,$7,$8,$9,0*
20,1,$1+$1,$8,$9,$2,$3,0*%
G04 Aperture macros list end*
%ADD10C,3.000000*%
%ADD11C,3.987800*%
%ADD12C,1.750000*%
%ADD13R,2.550000X2.500000*%
%ADD14C,3.048000*%
%ADD15R,1.200000X0.900000*%
%ADD16RoundRect,0.140000X-0.140000X-0.170000X0.140000X-0.170000X0.140000X0.170000X-0.140000X0.170000X0*%
%ADD17RoundRect,0.140000X0.140000X0.170000X-0.140000X0.170000X-0.140000X-0.170000X0.140000X-0.170000X0*%
%ADD18C,1.700000*%
%ADD19R,1.700000X1.700000*%
%ADD20R,0.700000X1.000000*%
%ADD21R,0.700000X0.600000*%
%ADD22RoundRect,0.135000X-0.185000X0.135000X-0.185000X-0.135000X0.185000X-0.135000X0.185000X0.135000X0*%
%ADD23RoundRect,0.225000X0.225000X0.250000X-0.225000X0.250000X-0.225000X-0.250000X0.225000X-0.250000X0*%
%ADD24RoundRect,0.135000X0.135000X0.185000X-0.135000X0.185000X-0.135000X-0.185000X0.135000X-0.185000X0*%
%ADD25RoundRect,0.218750X0.218750X0.381250X-0.218750X0.381250X-0.218750X-0.381250X0.218750X-0.381250X0*%
%ADD26R,1.800000X1.100000*%
%ADD27RoundRect,0.250000X-0.625000X0.375000X-0.625000X-0.375000X0.625000X-0.375000X0.625000X0.375000X0*%
%ADD28RoundRect,0.140000X-0.170000X0.140000X-0.170000X-0.140000X0.170000X-0.140000X0.170000X0.140000X0*%
%ADD29R,1.200000X1.400000*%
%ADD30RoundRect,0.135000X-0.135000X-0.185000X0.135000X-0.185000X0.135000X0.185000X-0.135000X0.185000X0*%
%ADD31C,0.650000*%
%ADD32R,0.600000X1.450000*%
%ADD33R,0.300000X1.450000*%
%ADD34O,1.000000X1.600000*%
%ADD35O,1.000000X2.100000*%
%ADD36RoundRect,0.062500X-0.062500X0.475000X-0.062500X-0.475000X0.062500X-0.475000X0.062500X0.475000X0*%
%ADD37RoundRect,0.062500X-0.475000X0.062500X-0.475000X-0.062500X0.475000X-0.062500X0.475000X0.062500X0*%
%ADD38R,5.200000X5.200000*%
%ADD39R,0.900000X1.200000*%
G04 APERTURE END LIST*
D10*
X91122500Y-138430000D03*
D11*
X93662500Y-133350000D03*
D10*
X97472500Y-135890000D03*
D12*
X98742500Y-133350000D03*
X88582500Y-133350000D03*
D13*
X100747500Y-135890000D03*
X87820500Y-138430000D03*
D12*
X260667500Y-57150000D03*
D11*
X255587500Y-57150000D03*
D10*
X251777500Y-54610000D03*
D12*
X250507500Y-57150000D03*
D10*
X258127500Y-52070000D03*
D13*
X248502500Y-54610000D03*
X261429500Y-52070000D03*
D12*
X232092500Y-76200000D03*
X221932500Y-76200000D03*
D10*
X223202500Y-73660000D03*
D11*
X227012500Y-76200000D03*
D10*
X229552500Y-71120000D03*
D13*
X219927500Y-73660000D03*
X232854500Y-71120000D03*
D10*
X74771250Y-90170000D03*
D12*
X67151250Y-95250000D03*
D11*
X72231250Y-95250000D03*
D10*
X68421250Y-92710000D03*
D12*
X77311250Y-95250000D03*
D13*
X65146250Y-92710000D03*
X78073250Y-90170000D03*
D10*
X260508750Y-128270000D03*
X254158750Y-130810000D03*
D11*
X257968750Y-133350000D03*
D12*
X263048750Y-133350000D03*
X252888750Y-133350000D03*
D13*
X250883750Y-130810000D03*
X263810750Y-128270000D03*
D12*
X308292500Y-76200000D03*
D10*
X305752500Y-71120000D03*
X299402500Y-73660000D03*
D12*
X298132500Y-76200000D03*
D11*
X303212500Y-76200000D03*
D13*
X296127500Y-73660000D03*
X309054500Y-71120000D03*
D10*
X117633750Y-128270000D03*
D11*
X115093750Y-133350000D03*
D10*
X111283750Y-130810000D03*
D12*
X110013750Y-133350000D03*
X120173750Y-133350000D03*
D13*
X108008750Y-130810000D03*
X120935750Y-128270000D03*
D10*
X247015000Y-92710000D03*
X253365000Y-90170000D03*
D11*
X250825000Y-95250000D03*
D12*
X245745000Y-95250000D03*
X255905000Y-95250000D03*
D13*
X243740000Y-92710000D03*
X256667000Y-90170000D03*
D11*
X165100000Y-114300000D03*
D12*
X160020000Y-114300000D03*
D10*
X167640000Y-109220000D03*
X161290000Y-111760000D03*
D12*
X170180000Y-114300000D03*
D13*
X158015000Y-111760000D03*
X170942000Y-109220000D03*
D12*
X151130000Y-114300000D03*
X140970000Y-114300000D03*
D10*
X148590000Y-109220000D03*
D11*
X146050000Y-114300000D03*
D10*
X142240000Y-111760000D03*
D13*
X138965000Y-111760000D03*
X151892000Y-109220000D03*
D10*
X215265000Y-90170000D03*
D11*
X212725000Y-95250000D03*
D10*
X208915000Y-92710000D03*
D12*
X217805000Y-95250000D03*
X207645000Y-95250000D03*
D13*
X205640000Y-92710000D03*
X218567000Y-90170000D03*
D11*
X91281250Y-133350000D03*
D12*
X96361250Y-133350000D03*
D10*
X87471250Y-130810000D03*
X93821250Y-128270000D03*
D12*
X86201250Y-133350000D03*
D13*
X84196250Y-130810000D03*
X97123250Y-128270000D03*
D12*
X284480000Y-114300000D03*
D10*
X275590000Y-111760000D03*
X281940000Y-109220000D03*
D11*
X279400000Y-114300000D03*
D12*
X274320000Y-114300000D03*
D13*
X272315000Y-111760000D03*
X285242000Y-109220000D03*
D10*
X313690000Y-135572500D03*
D12*
X312420000Y-138112500D03*
X322580000Y-138112500D03*
D10*
X320040000Y-133032500D03*
D11*
X317500000Y-138112500D03*
D13*
X310415000Y-135572500D03*
X323342000Y-133032500D03*
D10*
X108902500Y-73660000D03*
D12*
X117792500Y-76200000D03*
D10*
X115252500Y-71120000D03*
D11*
X112712500Y-76200000D03*
D12*
X107632500Y-76200000D03*
D13*
X105627500Y-73660000D03*
X118554500Y-71120000D03*
D12*
X122555000Y-95250000D03*
X112395000Y-95250000D03*
D11*
X117475000Y-95250000D03*
D10*
X120015000Y-90170000D03*
X113665000Y-92710000D03*
D13*
X110390000Y-92710000D03*
X123317000Y-90170000D03*
D10*
X70008750Y-128270000D03*
D12*
X72548750Y-133350000D03*
D10*
X63658750Y-130810000D03*
D11*
X67468750Y-133350000D03*
D12*
X62388750Y-133350000D03*
D13*
X60383750Y-130810000D03*
X73310750Y-128270000D03*
D12*
X236855000Y-95250000D03*
X226695000Y-95250000D03*
D10*
X234315000Y-90170000D03*
X227965000Y-92710000D03*
D11*
X231775000Y-95250000D03*
D13*
X224690000Y-92710000D03*
X237617000Y-90170000D03*
D12*
X74930000Y-76200000D03*
D10*
X66040000Y-73660000D03*
D12*
X64770000Y-76200000D03*
D11*
X69850000Y-76200000D03*
D10*
X72390000Y-71120000D03*
D13*
X62765000Y-73660000D03*
X75692000Y-71120000D03*
D10*
X194627500Y-54610000D03*
X200977500Y-52070000D03*
D12*
X193357500Y-57150000D03*
D11*
X198437500Y-57150000D03*
D12*
X203517500Y-57150000D03*
D13*
X191352500Y-54610000D03*
X204279500Y-52070000D03*
D11*
X274637500Y-57150000D03*
D12*
X279717500Y-57150000D03*
D10*
X270827500Y-54610000D03*
D12*
X269557500Y-57150000D03*
D10*
X277177500Y-52070000D03*
D13*
X267552500Y-54610000D03*
X280479500Y-52070000D03*
D10*
X166052500Y-73660000D03*
D12*
X174942500Y-76200000D03*
D11*
X169862500Y-76200000D03*
D12*
X164782500Y-76200000D03*
D10*
X172402500Y-71120000D03*
D13*
X162777500Y-73660000D03*
X175704500Y-71120000D03*
D10*
X127952500Y-73660000D03*
D12*
X126682500Y-76200000D03*
X136842500Y-76200000D03*
D10*
X134302500Y-71120000D03*
D11*
X131762500Y-76200000D03*
D13*
X124677500Y-73660000D03*
X137604500Y-71120000D03*
D10*
X224790000Y-109220000D03*
X218440000Y-111760000D03*
D11*
X222250000Y-114300000D03*
D12*
X217170000Y-114300000D03*
X227330000Y-114300000D03*
D13*
X215165000Y-111760000D03*
X228092000Y-109220000D03*
D12*
X98107500Y-57150000D03*
D11*
X103187500Y-57150000D03*
D10*
X99377500Y-54610000D03*
X105727500Y-52070000D03*
D12*
X108267500Y-57150000D03*
D13*
X96102500Y-54610000D03*
X109029500Y-52070000D03*
D12*
X179705000Y-95250000D03*
D10*
X177165000Y-90170000D03*
D11*
X174625000Y-95250000D03*
D10*
X170815000Y-92710000D03*
D12*
X169545000Y-95250000D03*
D13*
X167540000Y-92710000D03*
X180467000Y-90170000D03*
D11*
X336550000Y-138112500D03*
D12*
X341630000Y-138112500D03*
D10*
X339090000Y-133032500D03*
D12*
X331470000Y-138112500D03*
D10*
X332740000Y-135572500D03*
D13*
X329465000Y-135572500D03*
X342392000Y-133032500D03*
X342392000Y-113973915D03*
X329465000Y-116513915D03*
D12*
X341630000Y-119053915D03*
X331470000Y-119053915D03*
D11*
X336550000Y-119053915D03*
D10*
X332740000Y-116513915D03*
X339090000Y-113973915D03*
D11*
X117475000Y-133350000D03*
D10*
X121285000Y-135890000D03*
D12*
X112395000Y-133350000D03*
D10*
X114935000Y-138430000D03*
D12*
X122555000Y-133350000D03*
D13*
X124560000Y-135890000D03*
X111633000Y-138430000D03*
D10*
X358140000Y-52070000D03*
D12*
X360680000Y-57150000D03*
D11*
X355600000Y-57150000D03*
D12*
X350520000Y-57150000D03*
D10*
X351790000Y-54610000D03*
D13*
X348515000Y-54610000D03*
X361442000Y-52070000D03*
D10*
X323215000Y-73660000D03*
D11*
X327025000Y-76200000D03*
D12*
X332105000Y-76200000D03*
X321945000Y-76200000D03*
D10*
X329565000Y-71120000D03*
D13*
X319940000Y-73660000D03*
X332867000Y-71120000D03*
D10*
X351790000Y-135572500D03*
X358140000Y-133032500D03*
D12*
X360680000Y-138112500D03*
D11*
X355600000Y-138112500D03*
D12*
X350520000Y-138112500D03*
D13*
X348515000Y-135572500D03*
X361442000Y-133032500D03*
D10*
X266065000Y-92710000D03*
D12*
X264795000Y-95250000D03*
D10*
X272415000Y-90170000D03*
D11*
X269875000Y-95250000D03*
D12*
X274955000Y-95250000D03*
D13*
X262790000Y-92710000D03*
X275717000Y-90170000D03*
D10*
X73660000Y-135890000D03*
D12*
X74930000Y-133350000D03*
D11*
X69850000Y-133350000D03*
D12*
X64770000Y-133350000D03*
D10*
X67310000Y-138430000D03*
D13*
X76935000Y-135890000D03*
X64008000Y-138430000D03*
D10*
X280352500Y-73660000D03*
D12*
X289242500Y-76200000D03*
D11*
X284162500Y-76200000D03*
D12*
X279082500Y-76200000D03*
D10*
X286702500Y-71120000D03*
D13*
X277077500Y-73660000D03*
X290004500Y-71120000D03*
D12*
X251142500Y-76200000D03*
X240982500Y-76200000D03*
D10*
X242252500Y-73660000D03*
X248602500Y-71120000D03*
D11*
X246062500Y-76200000D03*
D13*
X238977500Y-73660000D03*
X251904500Y-71120000D03*
D10*
X324802500Y-52070000D03*
D11*
X334200500Y-65405000D03*
D14*
X334200500Y-50165000D03*
D10*
X318452500Y-54610000D03*
D12*
X317182500Y-57150000D03*
D14*
X310324500Y-50165000D03*
D11*
X322262500Y-57150000D03*
D12*
X327342500Y-57150000D03*
D11*
X310324500Y-65405000D03*
D13*
X315177500Y-54610000D03*
X328104500Y-52070000D03*
D10*
X175577500Y-54610000D03*
D12*
X174307500Y-57150000D03*
D10*
X181927500Y-52070000D03*
D12*
X184467500Y-57150000D03*
D11*
X179387500Y-57150000D03*
D13*
X172302500Y-54610000D03*
X185229500Y-52070000D03*
D10*
X100965000Y-90170000D03*
X94615000Y-92710000D03*
D11*
X98425000Y-95250000D03*
D12*
X93345000Y-95250000D03*
X103505000Y-95250000D03*
D13*
X91340000Y-92710000D03*
X104267000Y-90170000D03*
D12*
X136207500Y-57150000D03*
D11*
X141287500Y-57150000D03*
D12*
X146367500Y-57150000D03*
D10*
X137477500Y-54610000D03*
X143827500Y-52070000D03*
D13*
X134202500Y-54610000D03*
X147129500Y-52070000D03*
D11*
X107950000Y-114300000D03*
D10*
X110490000Y-109220000D03*
X104140000Y-111760000D03*
D12*
X102870000Y-114300000D03*
X113030000Y-114300000D03*
D13*
X100865000Y-111760000D03*
X113792000Y-109220000D03*
D10*
X67627500Y-52070000D03*
D11*
X65087500Y-57150000D03*
D12*
X60007500Y-57150000D03*
X70167500Y-57150000D03*
D10*
X61277500Y-54610000D03*
D13*
X58002500Y-54610000D03*
X70929500Y-52070000D03*
D10*
X153352500Y-71120000D03*
X147002500Y-73660000D03*
D12*
X155892500Y-76200000D03*
X145732500Y-76200000D03*
D11*
X150812500Y-76200000D03*
D13*
X143727500Y-73660000D03*
X156654500Y-71120000D03*
D12*
X212407500Y-57150000D03*
D11*
X217487500Y-57150000D03*
D10*
X220027500Y-52070000D03*
X213677500Y-54610000D03*
D12*
X222567500Y-57150000D03*
D13*
X210402500Y-54610000D03*
X223329500Y-52070000D03*
D11*
X184150000Y-114300000D03*
D10*
X186690000Y-109220000D03*
D12*
X189230000Y-114300000D03*
X179070000Y-114300000D03*
D10*
X180340000Y-111760000D03*
D13*
X177065000Y-111760000D03*
X189992000Y-109220000D03*
D12*
X310673750Y-114300000D03*
D11*
X305593750Y-114300000D03*
D10*
X308133750Y-109220000D03*
D12*
X300513750Y-114300000D03*
D10*
X301783750Y-111760000D03*
D13*
X298508750Y-111760000D03*
X311435750Y-109220000D03*
X275921497Y-138430000D03*
X288848497Y-135890000D03*
D12*
X286843497Y-133350000D03*
D10*
X279223497Y-138430000D03*
X285573497Y-135890000D03*
D12*
X276683497Y-133350000D03*
D11*
X281763497Y-133350000D03*
X186531250Y-133350000D03*
D12*
X191611250Y-133350000D03*
D10*
X182721250Y-130810000D03*
X189071250Y-128270000D03*
D11*
X136531350Y-125095000D03*
D12*
X181451250Y-133350000D03*
D14*
X236531150Y-140335000D03*
X136531350Y-140335000D03*
D11*
X236531150Y-125095000D03*
D13*
X179446250Y-130810000D03*
X192373250Y-128270000D03*
D10*
X232727500Y-54610000D03*
X239077500Y-52070000D03*
D11*
X236537500Y-57150000D03*
D12*
X231457500Y-57150000D03*
X241617500Y-57150000D03*
D13*
X229452500Y-54610000D03*
X242379500Y-52070000D03*
D10*
X204152500Y-73660000D03*
D12*
X213042500Y-76200000D03*
X202882500Y-76200000D03*
D10*
X210502500Y-71120000D03*
D11*
X207962500Y-76200000D03*
D13*
X200877500Y-73660000D03*
X213804500Y-71120000D03*
D12*
X98742500Y-76200000D03*
D10*
X96202500Y-71120000D03*
D11*
X93662500Y-76200000D03*
D10*
X89852500Y-73660000D03*
D12*
X88582500Y-76200000D03*
D13*
X86577500Y-73660000D03*
X99504500Y-71120000D03*
D12*
X265430000Y-114300000D03*
D10*
X256540000Y-111760000D03*
D12*
X255270000Y-114300000D03*
D11*
X260350000Y-114300000D03*
D10*
X262890000Y-109220000D03*
D13*
X253265000Y-111760000D03*
X266192000Y-109220000D03*
D12*
X193357500Y-133350000D03*
D11*
X198437500Y-133350000D03*
D14*
X255587500Y-140335000D03*
D11*
X141287500Y-125095000D03*
X255587500Y-125095000D03*
D12*
X203517500Y-133350000D03*
D10*
X195897500Y-138430000D03*
X202247500Y-135890000D03*
D14*
X141287500Y-140335000D03*
D13*
X205522500Y-135890000D03*
X192595500Y-138430000D03*
D12*
X298767500Y-57150000D03*
X288607500Y-57150000D03*
D11*
X293687500Y-57150000D03*
D10*
X289877500Y-54610000D03*
X296227500Y-52070000D03*
D13*
X286602500Y-54610000D03*
X299529500Y-52070000D03*
D10*
X123190000Y-111760000D03*
D12*
X121920000Y-114300000D03*
D11*
X127000000Y-114300000D03*
D12*
X132080000Y-114300000D03*
D10*
X129540000Y-109220000D03*
D13*
X119915000Y-111760000D03*
X132842000Y-109220000D03*
D10*
X158115000Y-90170000D03*
D12*
X160655000Y-95250000D03*
D11*
X155575000Y-95250000D03*
D10*
X151765000Y-92710000D03*
D12*
X150495000Y-95250000D03*
D13*
X148490000Y-92710000D03*
X161417000Y-90170000D03*
D12*
X198120000Y-114300000D03*
D11*
X203200000Y-114300000D03*
D10*
X205740000Y-109220000D03*
X199390000Y-111760000D03*
D12*
X208280000Y-114300000D03*
D13*
X196115000Y-111760000D03*
X209042000Y-109220000D03*
D12*
X198755000Y-95250000D03*
D10*
X189865000Y-92710000D03*
D11*
X193675000Y-95250000D03*
D12*
X188595000Y-95250000D03*
D10*
X196215000Y-90170000D03*
D13*
X186590000Y-92710000D03*
X199517000Y-90170000D03*
D14*
X331819250Y-88265000D03*
D12*
X314801250Y-95250000D03*
D11*
X319881250Y-95250000D03*
X307943250Y-103505000D03*
X331819250Y-103505000D03*
D14*
X307943250Y-88265000D03*
D12*
X324961250Y-95250000D03*
D10*
X316071250Y-92710000D03*
X322421250Y-90170000D03*
D13*
X312796250Y-92710000D03*
X325723250Y-90170000D03*
D11*
X136525000Y-95250000D03*
D10*
X139065000Y-90170000D03*
X132715000Y-92710000D03*
D12*
X141605000Y-95250000D03*
X131445000Y-95250000D03*
D13*
X129440000Y-92710000D03*
X142367000Y-90170000D03*
D11*
X288925000Y-95250000D03*
D10*
X291465000Y-90170000D03*
D12*
X294005000Y-95250000D03*
X283845000Y-95250000D03*
D10*
X285115000Y-92710000D03*
D13*
X281840000Y-92710000D03*
X294767000Y-90170000D03*
D12*
X274320000Y-133350000D03*
X284480000Y-133350000D03*
D10*
X281940000Y-128270000D03*
X275590000Y-130810000D03*
D11*
X279400000Y-133350000D03*
D13*
X272315000Y-130810000D03*
X285242000Y-128270000D03*
D11*
X265112500Y-76200000D03*
D10*
X267652500Y-71120000D03*
X261302500Y-73660000D03*
D12*
X270192500Y-76200000D03*
X260032500Y-76200000D03*
D13*
X258027500Y-73660000D03*
X270954500Y-71120000D03*
D10*
X185102500Y-73660000D03*
D12*
X183832500Y-76200000D03*
D10*
X191452500Y-71120000D03*
D12*
X193992500Y-76200000D03*
D11*
X188912500Y-76200000D03*
D13*
X181827500Y-73660000D03*
X194754500Y-71120000D03*
D11*
X122237500Y-57150000D03*
D10*
X124777500Y-52070000D03*
X118427500Y-54610000D03*
D12*
X117157500Y-57150000D03*
X127317500Y-57150000D03*
D13*
X115152500Y-54610000D03*
X128079500Y-52070000D03*
D11*
X160337500Y-57150000D03*
D12*
X165417500Y-57150000D03*
D10*
X162877500Y-52070000D03*
D12*
X155257500Y-57150000D03*
D10*
X156527500Y-54610000D03*
D13*
X153252500Y-54610000D03*
X166179500Y-52070000D03*
D10*
X86677500Y-52070000D03*
X80327500Y-54610000D03*
D12*
X79057500Y-57150000D03*
X89217500Y-57150000D03*
D11*
X84137500Y-57150000D03*
D13*
X77052500Y-54610000D03*
X89979500Y-52070000D03*
D10*
X351790000Y-73660000D03*
D11*
X355600000Y-76200000D03*
D12*
X350520000Y-76200000D03*
X360680000Y-76200000D03*
D10*
X358140000Y-71120000D03*
D13*
X348515000Y-73660000D03*
X361442000Y-71120000D03*
D12*
X246380000Y-114300000D03*
X236220000Y-114300000D03*
D10*
X237490000Y-111760000D03*
D11*
X241300000Y-114300000D03*
D10*
X243840000Y-109220000D03*
D13*
X234215000Y-111760000D03*
X247142000Y-109220000D03*
D12*
X71913750Y-114300000D03*
D14*
X65055750Y-107315000D03*
D11*
X76993750Y-114300000D03*
D10*
X73183750Y-111760000D03*
D14*
X88931750Y-107315000D03*
D10*
X79533750Y-109220000D03*
D11*
X65055750Y-122555000D03*
X88931750Y-122555000D03*
D12*
X82073750Y-114300000D03*
D13*
X69908750Y-111760000D03*
X82835750Y-109220000D03*
D15*
X263896220Y-139739590D03*
X263896220Y-136439590D03*
D16*
X213735535Y-122915772D03*
X214695535Y-122915772D03*
D15*
X124475000Y-130350000D03*
X124475000Y-127050000D03*
X137635040Y-82519921D03*
X137635040Y-79219921D03*
X99565183Y-82518709D03*
X99565183Y-79218709D03*
X275762226Y-101565732D03*
X275762226Y-98265732D03*
D17*
X206154733Y-127060984D03*
X205194733Y-127060984D03*
D15*
X261496938Y-63425118D03*
X261496938Y-60125118D03*
X309119393Y-82485757D03*
X309119393Y-79185757D03*
X342435512Y-125384952D03*
X342435512Y-122084952D03*
X190042796Y-120610931D03*
X190042796Y-117310931D03*
X206768750Y-119839433D03*
X206768750Y-116539433D03*
X213829592Y-82625706D03*
X213829592Y-79325706D03*
X294803937Y-101578797D03*
X294803937Y-98278797D03*
X361475912Y-82549546D03*
X361475912Y-79249546D03*
X266240103Y-120648038D03*
X266240103Y-117348038D03*
D18*
X241874731Y-128746250D03*
X244414731Y-128746250D03*
X241874731Y-126206250D03*
X244414731Y-126206250D03*
X241874731Y-123666250D03*
D19*
X244414731Y-123666250D03*
D15*
X90093750Y-63662500D03*
X90093750Y-60362500D03*
X185322604Y-63502895D03*
X185322604Y-60202895D03*
D16*
X226806865Y-131016825D03*
X227766865Y-131016825D03*
D20*
X208962500Y-59575000D03*
D21*
X208962500Y-61275000D03*
X206962500Y-61275000D03*
X206962500Y-59375000D03*
D15*
X237655378Y-101601434D03*
X237655378Y-98301434D03*
X82867591Y-120622553D03*
X82867591Y-117322553D03*
X251982936Y-82646221D03*
X251982936Y-79346221D03*
X109143750Y-63662500D03*
X109143750Y-60362500D03*
X113830769Y-120680899D03*
X113830769Y-117380899D03*
X118565736Y-82501915D03*
X118565736Y-79201915D03*
X218605573Y-101601043D03*
X218605573Y-98301043D03*
X171133465Y-120688120D03*
X171133465Y-117388120D03*
D22*
X211148479Y-113161698D03*
X211148479Y-114181698D03*
D15*
X311500508Y-120660917D03*
X311500508Y-117360917D03*
X71037500Y-63650000D03*
X71037500Y-60350000D03*
X147243750Y-63712500D03*
X147243750Y-60412500D03*
D23*
X205737191Y-128809371D03*
X204187191Y-128809371D03*
D24*
X204898440Y-55358810D03*
X203878440Y-55358810D03*
D25*
X217732332Y-48716659D03*
X215607332Y-48716659D03*
D15*
X75752308Y-82594908D03*
X75752308Y-79294908D03*
X361480191Y-63464210D03*
X361480191Y-60164210D03*
X161482546Y-101606480D03*
X161482546Y-98306480D03*
D24*
X209001745Y-137427197D03*
X207981745Y-137427197D03*
D26*
X239948410Y-134710074D03*
X246148410Y-134710074D03*
X239948410Y-131010074D03*
X246148410Y-131010074D03*
D27*
X204356967Y-60331928D03*
X204356967Y-63131928D03*
D15*
X151937360Y-120609126D03*
X151937360Y-117309126D03*
D28*
X218877419Y-128008811D03*
X218877419Y-128968811D03*
D29*
X221657984Y-133755317D03*
X221657984Y-131555317D03*
X223357984Y-131555317D03*
X223357984Y-133755317D03*
D15*
X100651926Y-130348928D03*
X100651926Y-127048928D03*
X228197588Y-120709086D03*
X228197588Y-117409086D03*
X199527272Y-101539145D03*
X199527272Y-98239145D03*
D30*
X232893793Y-133646922D03*
X233913793Y-133646922D03*
D15*
X82920289Y-101562833D03*
X82920289Y-98262833D03*
D16*
X215147940Y-136435975D03*
X216107940Y-136435975D03*
D15*
X361489544Y-144374562D03*
X361489544Y-141074562D03*
X342460371Y-144320807D03*
X342460371Y-141020807D03*
X132892080Y-120651238D03*
X132892080Y-117351238D03*
X299621537Y-63515858D03*
X299621537Y-60215858D03*
X285294428Y-120653962D03*
X285294428Y-117353962D03*
X332920697Y-82553627D03*
X332920697Y-79253627D03*
X104326708Y-101653683D03*
X104326708Y-98353683D03*
X180509065Y-101614167D03*
X180509065Y-98314167D03*
D22*
X209935378Y-51583853D03*
X209935378Y-52603853D03*
D15*
X290059887Y-82508139D03*
X290059887Y-79208139D03*
X242393750Y-63548508D03*
X242393750Y-60248508D03*
X289976169Y-130272601D03*
X289976169Y-126972601D03*
X328144363Y-63490206D03*
X328144363Y-60190206D03*
X325762185Y-101540773D03*
X325762185Y-98240773D03*
X323397500Y-144417084D03*
X323397500Y-141117084D03*
D31*
X210852500Y-47525000D03*
X205072500Y-47525000D03*
D32*
X204737500Y-48970000D03*
X205512500Y-48970000D03*
D33*
X206212500Y-48970000D03*
X206712500Y-48970000D03*
X207212500Y-48970000D03*
X207712500Y-48970000D03*
X208212500Y-48970000D03*
X208712500Y-48970000D03*
X209212500Y-48970000D03*
X209712500Y-48970000D03*
D32*
X210412500Y-48970000D03*
X211187500Y-48970000D03*
D34*
X203642500Y-43875000D03*
D35*
X203642500Y-48055000D03*
X212282500Y-48055000D03*
D34*
X212282500Y-43875000D03*
D36*
X208853361Y-128212242D03*
X209353361Y-128212242D03*
X209853361Y-128212242D03*
X210353361Y-128212242D03*
X210853361Y-128212242D03*
X211353361Y-128212242D03*
X211853361Y-128212242D03*
X212353361Y-128212242D03*
X212853361Y-128212242D03*
X213353361Y-128212242D03*
X213853361Y-128212242D03*
D37*
X214690861Y-129049742D03*
X214690861Y-129549742D03*
X214690861Y-130049742D03*
X214690861Y-130549742D03*
X214690861Y-131049742D03*
X214690861Y-131549742D03*
X214690861Y-132049742D03*
X214690861Y-132549742D03*
X214690861Y-133049742D03*
X214690861Y-133549742D03*
X214690861Y-134049742D03*
D36*
X213853361Y-134887242D03*
X213353361Y-134887242D03*
X212853361Y-134887242D03*
X212353361Y-134887242D03*
X211853361Y-134887242D03*
X211353361Y-134887242D03*
X210853361Y-134887242D03*
X210353361Y-134887242D03*
X209853361Y-134887242D03*
X209353361Y-134887242D03*
X208853361Y-134887242D03*
D37*
X208015861Y-134049742D03*
X208015861Y-133549742D03*
X208015861Y-133049742D03*
X208015861Y-132549742D03*
X208015861Y-132049742D03*
X208015861Y-131549742D03*
X208015861Y-131049742D03*
X208015861Y-130549742D03*
X208015861Y-130049742D03*
X208015861Y-129549742D03*
X208015861Y-129049742D03*
D38*
X211353361Y-131549742D03*
D39*
X184849850Y-138641446D03*
X181549850Y-138641446D03*
D15*
X156689261Y-82543578D03*
X156689261Y-79243578D03*
D16*
X226806865Y-134191825D03*
X227766865Y-134191825D03*
D15*
X190405396Y-63476963D03*
X190405396Y-60176963D03*
X232904074Y-82532383D03*
X232904074Y-79232383D03*
D22*
X212940522Y-113161097D03*
X212940522Y-114181097D03*
D15*
X271035605Y-82475849D03*
X271035605Y-79175849D03*
X142439817Y-101523749D03*
X142439817Y-98223749D03*
X247166863Y-120621909D03*
X247166863Y-117321909D03*
X128237500Y-63562500D03*
X128237500Y-60262500D03*
D16*
X208018595Y-138847966D03*
X208978595Y-138847966D03*
D15*
X76850000Y-130342934D03*
X76850000Y-127042934D03*
X256705378Y-101631290D03*
X256705378Y-98331290D03*
X223437500Y-63562500D03*
X223437500Y-60262500D03*
X175743242Y-82543963D03*
X175743242Y-79243963D03*
X280510254Y-63530872D03*
X280510254Y-60230872D03*
X123353982Y-101594891D03*
X123353982Y-98294891D03*
X194764424Y-82521863D03*
X194764424Y-79221863D03*
X166293750Y-63562500D03*
X166293750Y-60262500D03*
M02*
